<?xml version="1.0" encoding="UTF-8" standalone="no"?>
<!-- Created with Inkscape (http://www.inkscape.org/) -->

<svg
   xmlns:dc="http://purl.org/dc/elements/1.1/"
   xmlns:cc="http://creativecommons.org/ns#"
   xmlns:rdf="http://www.w3.org/1999/02/22-rdf-syntax-ns#"
   xmlns:svg="http://www.w3.org/2000/svg"
   xmlns="http://www.w3.org/2000/svg"
   xmlns:sodipodi="http://sodipodi.sourceforge.net/DTD/sodipodi-0.dtd"
   xmlns:inkscape="http://www.inkscape.org/namespaces/inkscape"
   width="35.498318mm"
   height="7.33425mm"
   viewBox="0 0 35.498318 7.33425"
   version="1.1"
   id="svg8"
   inkscape:version="0.92.4 (5da689c313, 2019-01-14)"
   sodipodi:docname="logo.svg">
  <defs
     id="defs2" />
  <sodipodi:namedview
     id="base"
     pagecolor="#ffffff"
     bordercolor="#666666"
     borderopacity="1.0"
     inkscape:pageopacity="0.0"
     inkscape:pageshadow="2"
     inkscape:zoom="5.6"
     inkscape:cx="48.24434"
     inkscape:cy="12.459134"
     inkscape:document-units="mm"
     inkscape:current-layer="text817"
     showgrid="false"
     inkscape:window-width="1920"
     inkscape:window-height="1053"
     inkscape:window-x="0"
     inkscape:window-y="27"
     inkscape:window-maximized="1"
     fit-margin-top="0"
     fit-margin-left="0"
     fit-margin-right="0"
     fit-margin-bottom="0" />
  <metadata
     id="metadata5">
    <rdf:RDF>
      <cc:Work
         rdf:about="">
        <dc:format>image/svg+xml</dc:format>
        <dc:type
           rdf:resource="http://purl.org/dc/dcmitype/StillImage" />
        <dc:title></dc:title>
      </cc:Work>
    </rdf:RDF>
  </metadata>
  <g
     inkscape:label="Layer 1"
     inkscape:groupmode="layer"
     id="layer1"
     transform="translate(264.83126,-103.04075)">
    <g
       aria-label="UseTube"
       style="font-style:normal;font-weight:normal;font-size:10.58333302px;line-height:1.25;font-family:sans-serif;letter-spacing:0px;word-spacing:0px;fill:#000000;fill-opacity:1;stroke:none;stroke-width:0.26458332"
       id="text817">
      <path
         d="m -264.83126,103.72866 h 1.19591 v 3.81 q 0,1.69334 1.32292,1.69334 1.32292,0 1.32292,-1.69334 v -3.81 h 1.19591 v 3.81 q 0,1.37584 -0.65616,2.10609 -0.64559,0.73025 -1.86267,0.73025 -1.21708,0 -1.87325,-0.73025 -0.64558,-0.73025 -0.64558,-2.10609 z"
         style="fill:#ff0000"
         id="path815" />
      <path
         d="m -258.63571,108.851 q 0.66675,0.48683 1.397,0.48683 0.86783,0 0.86783,-0.55033 0,-0.23284 -0.21167,-0.39159 -0.20108,-0.15875 -0.70908,-0.3175 -0.92075,-0.30691 -1.21708,-0.66675 -0.34925,-0.381 -0.34925,-0.9525 0,-0.71966 0.49741,-1.143 0.508,-0.42333 1.36525,-0.42333 0.93134,0 1.57692,0.45508 l -0.42333,0.93134 q -0.49742,-0.33867 -1.13242,-0.33867 -0.70908,0 -0.70908,0.49742 0,0.37041 0.83608,0.61383 1.66158,0.47625 1.66158,1.70392 0,0.75141 -0.53975,1.18533 -0.52916,0.43392 -1.4605,0.43392 -1.16416,0 -1.86266,-0.60325 z"
         style="fill:#ff0000"
         id="path817" />
      <path
         d="m -250.12853,108.089 h -3.16442 q 0.15875,1.22766 1.34408,1.22766 0.635,0 1.17475,-0.4445 l 0.60325,0.80434 q -0.762,0.6985 -1.87325,0.6985 -1.143,0 -1.79916,-0.70909 -0.64559,-0.71966 -0.64559,-1.9685 0,-1.28058 0.62442,-2.04258 0.62442,-0.762 1.68275,-0.762 1.19592,0 1.73567,0.93133 0.35983,0.61384 0.35983,1.66159 0,0.23283 -0.0423,0.60325 z m -3.16442,-0.9525 h 2.06375 q 0,-0.58209 -0.24342,-0.86784 -0.254,-0.3175 -0.74083,-0.3175 -0.92075,0 -1.0795,1.18534 z"
         style="fill:#ff0000"
         id="path819" />
      <path
         d="m -246.52871,104.787 v 5.49275 h -1.19592 V 104.787 h -1.69333 v -1.05834 h 4.72016 l -0.29633,1.05834 z"
         style="font-style:normal;font-variant:normal;font-weight:normal;font-stretch:normal;font-family:'YouTube Sans';-inkscape-font-specification:'YouTube Sans';stroke-width:0.26458332"
         id="path821" />
      <path
         d="m -244.6467,104.98808 h 1.16417 v 3.09033 q 0,1.21709 0.98425,1.21709 0.98425,0 0.98425,-1.21709 v -3.09033 h 1.16416 v 3.09033 q 0,2.29659 -2.159,2.29659 -2.13783,0 -2.13783,-2.29659 z"
         style="font-style:normal;font-variant:normal;font-weight:normal;font-stretch:normal;font-family:'YouTube Sans';-inkscape-font-specification:'YouTube Sans';stroke-width:0.26458332"
         id="path823" />
      <path
         d="m -238.09512,105.45375 q 0.32808,-0.30692 0.64558,-0.43392 0.32809,-0.127 0.81492,-0.127 1.02658,0 1.5875,0.70908 0.56092,0.6985 0.56092,1.97909 0,1.34408 -0.59267,2.07433 -0.58208,0.71967 -1.67217,0.71967 -0.81491,0 -1.4605,-0.58209 v 0.48684 h -1.02658 v -7.239 h 1.143 z m 1.22767,3.85233 q 0.62441,0 0.91016,-0.39158 0.29634,-0.39159 0.29634,-1.23825 0,-0.87842 -0.29634,-1.29117 -0.28575,-0.42333 -0.89958,-0.42333 -1.23825,0 -1.23825,1.69333 0,0.84667 0.29633,1.24883 0.29634,0.40217 0.93134,0.40217 z"
         style="font-style:normal;font-variant:normal;font-weight:normal;font-stretch:normal;font-family:'YouTube Sans';-inkscape-font-specification:'YouTube Sans';stroke-width:0.26458332"
         id="path825" />
      <path
         d="m -229.37528,108.089 h -3.16442 q 0.15875,1.22766 1.34409,1.22766 0.635,0 1.17475,-0.4445 l 0.60325,0.80434 q -0.762,0.6985 -1.87325,0.6985 -1.143,0 -1.79917,-0.70909 -0.64558,-0.71966 -0.64558,-1.9685 0,-1.28058 0.62441,-2.04258 0.62442,-0.762 1.68275,-0.762 1.19592,0 1.73567,0.93133 0.35983,0.61384 0.35983,1.66159 0,0.23283 -0.0423,0.60325 z m -3.16442,-0.9525 h 2.06375 q 0,-0.58209 -0.24341,-0.86784 -0.254,-0.3175 -0.74084,-0.3175 -0.92075,0 -1.0795,1.18534 z"
         style="font-style:normal;font-variant:normal;font-weight:normal;font-stretch:normal;font-family:'YouTube Sans';-inkscape-font-specification:'YouTube Sans';stroke-width:0.26458332"
         id="path827" />
    </g>
  </g>
</svg>
